<svg width="369" height="58" viewBox="0 0 369 58" fill="none" xmlns="http://www.w3.org/2000/svg">
<path d="M26.4467 47.672C23.6947 47.672 21.0387 47.336 18.4787 46.664C15.9507 45.96 13.8867 45.064 12.2867 43.976L15.4067 36.968C16.9107 37.928 18.6387 38.728 20.5907 39.368C22.5747 39.976 24.5427 40.28 26.4947 40.28C27.8067 40.28 28.8627 40.168 29.6627 39.944C30.4627 39.688 31.0387 39.368 31.3907 38.984C31.7747 38.568 31.9667 38.088 31.9667 37.544C31.9667 36.776 31.6147 36.168 30.9107 35.72C30.2067 35.272 29.2947 34.904 28.1747 34.616C27.0547 34.328 25.8067 34.04 24.4307 33.752C23.0867 33.464 21.7267 33.096 20.3507 32.648C19.0067 32.2 17.7747 31.624 16.6547 30.92C15.5347 30.184 14.6227 29.24 13.9187 28.088C13.2147 26.904 12.8627 25.416 12.8627 23.624C12.8627 21.608 13.4067 19.784 14.4947 18.152C15.6147 16.52 17.2787 15.208 19.4867 14.216C21.6947 13.224 24.4467 12.728 27.7427 12.728C29.9507 12.728 32.1107 12.984 34.2227 13.496C36.3667 13.976 38.2707 14.696 39.9347 15.656L37.0067 22.712C35.4067 21.848 33.8227 21.208 32.2547 20.792C30.6867 20.344 29.1667 20.12 27.6947 20.12C26.3827 20.12 25.3267 20.264 24.5267 20.552C23.7267 20.808 23.1507 21.16 22.7987 21.608C22.4467 22.056 22.2707 22.568 22.2707 23.144C22.2707 23.88 22.6067 24.472 23.2787 24.92C23.9827 25.336 24.8947 25.688 26.0147 25.976C27.1667 26.232 28.4147 26.504 29.7587 26.792C31.1347 27.08 32.4947 27.448 33.8387 27.896C35.2147 28.312 36.4627 28.888 37.5827 29.624C38.7027 30.328 39.5987 31.272 40.2707 32.456C40.9747 33.608 41.3267 35.064 41.3267 36.824C41.3267 38.776 40.7667 40.584 39.6467 42.248C38.5587 43.88 36.9107 45.192 34.7027 46.184C32.5267 47.176 29.7747 47.672 26.4467 47.672ZM52.4001 47V20.936H42.0801V13.4H72.1761V20.936H61.9041V47H52.4001ZM69.9973 47L84.8293 13.4H94.1893L109.069 47H99.1813L87.5653 18.056H91.3093L79.6933 47H69.9973ZM78.1093 40.472L80.5573 33.464H96.9733L99.4213 40.472H78.1093ZM118.15 47V32.792L120.358 38.504L105.334 13.4H115.366L126.214 31.592H120.406L131.302 13.4H140.518L125.542 38.504L127.654 32.792V47H118.15ZM164.056 47V20.936H153.736V13.4H183.832V20.936H173.56V47H164.056ZM202.361 47.672C197.401 47.672 193.529 46.312 190.745 43.592C187.961 40.872 186.569 37.016 186.569 32.024V13.4H196.073V31.736C196.073 34.616 196.633 36.68 197.753 37.928C198.905 39.176 200.473 39.8 202.457 39.8C204.441 39.8 205.993 39.176 207.113 37.928C208.233 36.68 208.793 34.616 208.793 31.736V13.4H218.153V32.024C218.153 37.016 216.761 40.872 213.977 43.592C211.193 46.312 207.321 47.672 202.361 47.672ZM224.592 47V13.4H232.416L250.944 35.768H247.248V13.4H256.56V47H248.736L230.208 24.632H233.904V47H224.592ZM272 26.408H287.6V33.512H272V26.408ZM272.672 39.656H290.24V47H263.264V13.4H289.616V20.744H272.672V39.656ZM295.514 47V13.4H311.402C315.114 13.4 318.378 14.088 321.194 15.464C324.01 16.84 326.202 18.776 327.77 21.272C329.37 23.768 330.17 26.744 330.17 30.2C330.17 33.624 329.37 36.6 327.77 39.128C326.202 41.624 324.01 43.56 321.194 44.936C318.378 46.312 315.114 47 311.402 47H295.514ZM305.018 39.416H311.018C312.938 39.416 314.602 39.064 316.01 38.36C317.45 37.624 318.57 36.568 319.37 35.192C320.17 33.784 320.57 32.12 320.57 30.2C320.57 28.248 320.17 26.584 319.37 25.208C318.57 23.832 317.45 22.792 316.01 22.088C314.602 21.352 312.938 20.984 311.018 20.984H305.018V39.416ZM335.41 34.76L333.634 13.4H344.482L342.658 34.76H335.41ZM339.058 47.432C337.458 47.432 336.146 46.936 335.122 45.944C334.098 44.952 333.586 43.768 333.586 42.392C333.586 40.984 334.098 39.816 335.122 38.888C336.146 37.928 337.458 37.448 339.058 37.448C340.658 37.448 341.954 37.928 342.946 38.888C343.97 39.816 344.482 40.984 344.482 42.392C344.482 43.768 343.97 44.952 342.946 45.944C341.954 46.936 340.658 47.432 339.058 47.432Z" fill="white"/>
<line x1="0.690137" y1="40.7915" x2="368.247" y2="12.2326" stroke="#030000" stroke-width="8"/>
</svg>
